# xmcd CD database file
#
# Track frame offsets:
#	150
#	24705
#	53017
#	78099
#	99593
#	122197
#	137326
#	165795
#	188782
#	208690
#	228204
#	246654
#	272136
#
# Disc length: 3866 seconds
#
# Revision: 0
# Processed by: cddbd v1.4PL0 Copyright (c) Steve Scherf et al.
# Submitted via: CDex 1.50
#
DISCID=a70f180d
DTITLE=Taylor Made Jazz - The Next Step
DYEAR=1900
DGENRE=Jazz
TTITLE0=The Next Step
TTITLE1=Jenny's Blues
TTITLE2=Saturday Night
TTITLE3=Lady
TTITLE4=Swing Grove
TTITLE5=Something New
TTITLE6=Tomoka's Song
TTITLE7=Van's Jam
TTITLE8=Under the Cape
TTITLE9=I need You Baby
TTITLE10=Himawari
TTITLE11=Everything is Gonna be Alright
TTITLE12=The Next Step (Radio Edit)
EXTD=
EXTT0=
EXTT1=
EXTT2=
EXTT3=
EXTT4=
EXTT5=
EXTT6=
EXTT7=
EXTT8=
EXTT9=
EXTT10=
EXTT11=
EXTT12=
PLAYORDER=
